<?xml version="1.0" encoding="UTF-8"?>
<svg id="Layer_2" data-name="Layer 2" xmlns="http://www.w3.org/2000/svg" viewBox="0 0 596.83 236.68">
  <defs>
    <style>
      .cls-1, .cls-2, .cls-3, .cls-4, .cls-5, .cls-6, .cls-7, .cls-8, .cls-9 {
        stroke-miterlimit: 10;
      }

      .cls-1, .cls-2, .cls-3, .cls-4, .cls-5, .cls-6, .cls-8, .cls-9 {
        stroke: #231f20;
      }

      .cls-1, .cls-6, .cls-7 {
        fill: none;
      }

      .cls-1, .cls-8, .cls-9 {
        stroke-width: 3px;
      }

      .cls-2 {
        fill: #ffcc04;
      }

      .cls-3 {
        fill: #929497;
      }

      .cls-4 {
        fill: #6e6f71;
      }

      .cls-5 {
        fill: #231f20;
      }

      .cls-7 {
        stroke: #eb2127;
      }

      .cls-8, .cls-10 {
        fill: #eb2627;
      }

      .cls-9 {
        fill: #f69320;
      }

      .cls-11 {
        fill: #75cdd5;
      }

      .cls-11, .cls-10 {
        stroke-width: 0px;
      }
    </style>
  </defs>
  <g id="Layer_1-2" data-name="Layer 1">
    <g>
      <line class="cls-6" x1="458.99" y1="199.75" x2="458.99" y2="204.57"/>
      <g>
        <ellipse class="cls-3" cx="369.35" cy="158.73" rx="9.84" ry="14.55"/>
        <ellipse class="cls-5" cx="366.03" cy="158.73" rx="15.85" ry="9.88" transform="translate(198.02 520.59) rotate(-88.54)"/>
      </g>
      <path class="cls-4" d="m377.86,138.42c0-.2,0-.36,0-.36,0,0,0,.16,0,.36s0,.36,0,.36c0,0,0-.16,0-.36Z"/>
      <g>
        <ellipse class="cls-3" cx="467.54" cy="158.49" rx="9.84" ry="15.6"/>
        <ellipse class="cls-5" cx="464.23" cy="158.49" rx="16.99" ry="9.88" transform="translate(295.58 619.12) rotate(-88.74)"/>
      </g>
      <polygon class="cls-2" points="327.39 175.57 326.63 175.94 326.35 177.37 326.25 175.57 327.39 175.57"/>
      <line class="cls-6" x1="371.94" y1="166.93" x2="370.24" y2="167.54"/>
      <g>
        <path class="cls-10" d="m334.17,92.47l134.19-4.12v7.34c0,2.2.25,5.78.55,7.96l2.16,15.53c.3,2.18.87,5.73,1.27,7.9l5.27,29.05c.39,2.16-1.09,3.94-3.29,3.94h-35.5c-2.2,0-5.75.44-7.88.97l-7.65,1.92c-2.13.54-5.68.97-7.88.97h-78.6c-2.2,0-4.23-1.79-4.51-3.97l-2-15.61c-.28-2.18-.35-5.76-.15-7.95l4.01-43.94Z"/>
        <path class="cls-6" d="m334.17,92.47l134.19-4.12v7.34c0,2.2.25,5.78.55,7.96l2.16,15.53c.3,2.18.87,5.73,1.27,7.9l5.27,29.05c.39,2.16-1.09,3.94-3.29,3.94h-35.5c-2.2,0-5.75.44-7.88.97l-7.65,1.92c-2.13.54-5.68.97-7.88.97h-78.6c-2.2,0-4.23-1.79-4.51-3.97l-2-15.61c-.28-2.18-.35-5.76-.15-7.95l4.01-43.94Z"/>
      </g>
      <g>
        <ellipse class="cls-3" cx="441.9" cy="163.29" rx="9.84" ry="15.6"/>
        <line class="cls-6" x1="444.21" y1="165.54" x2="442.51" y2="166.15"/>
        <path class="cls-2" d="m429.93,169.6h5.87-5.87Z"/>
        <ellipse class="cls-5" cx="435.81" cy="163.29" rx="9.91" ry="15.71"/>
      </g>
      <g>
        <ellipse class="cls-3" cx="331.5" cy="164.38" rx="14.24" ry="9.24" transform="translate(144.24 483.52) rotate(-85.97)"/>
        <ellipse class="cls-5" cx="326.55" cy="164.37" rx="14.34" ry="9.31" transform="translate(139.65 478.58) rotate(-85.97)"/>
      </g>
      <g>
        <path class="cls-11" d="m333.43,93.8c83.1,0,83.1,1.74,83.1,3.86v14.67c0,1.42-1.93,2.57-4.29,2.57h-73.52c-2.91,0-5.29-2.02-5.29-4.49v-16.61h0Z"/>
        <path class="cls-6" d="m333.43,93.8c83.1,0,83.1,1.74,83.1,3.86v14.67c0,1.42-1.93,2.57-4.29,2.57h-73.52c-2.91,0-5.29-2.02-5.29-4.49v-16.61h0Z"/>
      </g>
      <g>
        <path class="cls-10" d="m458.43,116.02h23.03c8.25,0,15,6.75,15,15v13.47c0,8.25-4.49,15.3-9.97,15.66l-9.97.66"/>
        <path class="cls-6" d="m458.43,116.02h23.03c8.25,0,15,6.75,15,15v13.47c0,8.25-4.49,15.3-9.97,15.66l-9.97.66"/>
      </g>
      <g>
        <path class="cls-11" d="m445.76,89.7l21.65,4.59,2.63,21.45h-24.28v-26.04Z"/>
        <path class="cls-6" d="m445.76,89.7l21.65,4.59,2.63,21.45h-24.28v-26.04Z"/>
      </g>
      <g>
        <rect class="cls-10" x="333.43" y="82.9" width="133.59" height="10.9" rx="3" ry="3"/>
        <rect class="cls-7" x="333.43" y="82.9" width="133.59" height="10.9" rx="3" ry="3"/>
      </g>
      <line class="cls-1" x1="331.61" y1="130.59" x2="495.28" y2="130.59"/>
      <path class="cls-8" d="m36.1,86.5c-1.62,1.66-3.91,3.15-6.87,4.48-2.96,1.33-6.54,2-10.72,2-2.21,0-4.35-.28-6.4-.83-2.05-.55-3.87-1.39-5.45-2.52-1.58-1.13-2.83-2.56-3.76-4.31-.93-1.75-1.39-3.8-1.39-6.14V9.09C1.5,4.86,10.41,2.74,28.22,2.74h34.78c.51,1.06.99,2.28,1.42,3.66.43,1.38.79,2.79,1.07,4.24.28,1.45.49,2.9.65,4.35.16,1.45.24,2.79.24,4.04,0,5.15-.95,9.07-2.84,11.76-1.9,2.69-4.92,4.04-9.06,4.04h-20.5c-.79,0-1.36.21-1.72.62-.36.41-.53.94-.53,1.59v.52c0,.25.04.43.12.52h26.19c.83,1.66,1.54,3.68,2.13,6.07.59,2.39.89,4.88.89,7.45,0,3.68-.39,6.73-1.16,9.14-.77,2.42-1.59,4.24-2.46,5.49h-29.03c-.32.37-.47.78-.47,1.24,0,.41.13.72.39.93.26.21.69.36,1.3.45.61.09,1.44.14,2.49.14s2.38.02,4,.07v17.46Z"/>
      <path class="cls-8" d="m100.32,93.88c-5.41,0-10.31-.91-14.69-2.73-4.38-1.82-8.13-4.44-11.23-7.87-3.1-3.43-5.49-7.6-7.17-12.52-1.68-4.92-2.52-10.46-2.52-16.63,0-6.48.9-12.21,2.7-17.18,1.8-4.97,4.23-9.13,7.29-12.49,3.06-3.36,6.62-5.89,10.69-7.59,4.07-1.7,8.35-2.55,12.86-2.55,4.78,0,9.08.82,12.91,2.45,3.83,1.63,7.1,3.88,9.81,6.73,2.7,2.85,4.79,6.19,6.25,10,1.46,3.82,2.19,7.89,2.19,12.21,0,4.09-.62,7.61-1.87,10.56-1.24,2.94-2.97,5.37-5.18,7.28-2.21,1.91-4.84,3.32-7.88,4.24-3.04.92-6.34,1.38-9.89,1.38-2.69,0-5.28-.37-7.79-1.1-2.51-.73-4.65-1.72-6.43-2.97-.2.18-.33.43-.39.72-.06.3-.09.56-.09.79,0,.69.43,1.37,1.3,2.04.87.67,1.99,1.27,3.38,1.79,1.38.53,2.96.97,4.74,1.31,1.78.35,3.55.52,5.33.52,2.45,0,4.68-.2,6.69-.59,2.01-.39,3.82-.87,5.42-1.45,1.6-.57,2.99-1.21,4.18-1.9s2.17-1.36,2.96-2c.51.51.96,1.25,1.33,2.24.38.99.7,2.08.98,3.28.28,1.2.48,2.43.62,3.69.14,1.27.21,2.43.21,3.48s-.05,2.06-.15,3c-.1.94-.23,1.76-.39,2.45-1.26,1.24-2.65,2.43-4.15,3.55-1.5,1.13-3.28,2.12-5.33,2.97-2.05.85-4.43,1.54-7.14,2.07-2.71.53-5.89.79-9.57.79Zm-.77-46.71c.99,0,1.73-.24,2.22-.72.49-.48.74-1.11.74-1.9,0-.92-.29-1.56-.86-1.93-.57-.37-1.25-.55-2.04-.55-1.11,0-1.98.36-2.64,1.07-.65.71-1.06,1.67-1.21,2.86.39.28.91.54,1.54.79.63.25,1.38.38,2.25.38Z"/>
      <path class="cls-8" d="m167.38,93.88c-5.41,0-10.31-.91-14.69-2.73-4.38-1.82-8.13-4.44-11.23-7.87-3.1-3.43-5.49-7.6-7.17-12.52-1.68-4.92-2.52-10.46-2.52-16.63,0-6.48.9-12.21,2.7-17.18,1.8-4.97,4.23-9.13,7.29-12.49,3.06-3.36,6.62-5.89,10.69-7.59,4.07-1.7,8.35-2.55,12.86-2.55,4.78,0,9.08.82,12.91,2.45,3.83,1.63,7.1,3.88,9.81,6.73,2.7,2.85,4.79,6.19,6.25,10,1.46,3.82,2.19,7.89,2.19,12.21,0,4.09-.62,7.61-1.87,10.56-1.24,2.94-2.97,5.37-5.18,7.28-2.21,1.91-4.84,3.32-7.88,4.24-3.04.92-6.34,1.38-9.89,1.38-2.69,0-5.28-.37-7.79-1.1-2.51-.73-4.65-1.72-6.43-2.97-.2.18-.33.43-.39.72-.06.3-.09.56-.09.79,0,.69.43,1.37,1.3,2.04.87.67,1.99,1.27,3.38,1.79,1.38.53,2.96.97,4.74,1.31,1.78.35,3.55.52,5.33.52,2.45,0,4.68-.2,6.69-.59,2.01-.39,3.82-.87,5.42-1.45,1.6-.57,2.99-1.21,4.18-1.9,1.18-.69,2.17-1.36,2.96-2,.51.51.96,1.25,1.33,2.24s.7,2.08.98,3.28c.28,1.2.48,2.43.62,3.69.14,1.27.21,2.43.21,3.48s-.05,2.06-.15,3c-.1.94-.23,1.76-.39,2.45-1.26,1.24-2.65,2.43-4.15,3.55-1.5,1.13-3.28,2.12-5.33,2.97-2.05.85-4.43,1.54-7.14,2.07-2.71.53-5.89.79-9.57.79Zm-.77-46.71c.99,0,1.73-.24,2.22-.72.49-.48.74-1.11.74-1.9,0-.92-.29-1.56-.86-1.93-.57-.37-1.25-.55-2.04-.55-1.11,0-1.98.36-2.64,1.07-.65.71-1.06,1.67-1.21,2.86.39.28.91.54,1.54.79.63.25,1.38.38,2.25.38Z"/>
      <path class="cls-8" d="m213.29,91.81c-4.27,0-7.62-1.32-10.07-3.97-2.45-2.64-3.67-6.77-3.67-12.38V7.99c2.09-2.07,4.66-3.67,7.7-4.8,3.04-1.13,6.16-1.69,9.36-1.69,2.21,0,4.37.34,6.49,1.04,2.11.69,3.99,1.74,5.63,3.14,1.64,1.4,2.95,3.19,3.94,5.35.99,2.16,1.48,4.69,1.48,7.59v37.74c-.99.09-2.04.32-3.17.69-1.13.37-2.17.83-3.14,1.38-.97.55-1.78,1.16-2.43,1.83-.65.67-.98,1.34-.98,2.04,0,.51.11.91.33,1.21.22.3.48.56.8.79,2.21-2.16,4.74-3.66,7.58-4.48,2.84-.83,6.12-1.24,9.83-1.24h14.04c.59,1.2,1.13,2.45,1.6,3.76.47,1.31.88,2.65,1.22,4,.34,1.36.6,2.7.8,4.04.2,1.34.3,2.58.3,3.73,0,1.66-.11,3.35-.33,5.07-.22,1.72-.53,3.37-.92,4.93-.4,1.56-.87,3.01-1.42,4.35-.55,1.33-1.19,2.46-1.9,3.38h-43.07Z"/>
      <path class="cls-8" d="m91.03,141.07c-1.26,0-2.44-.29-3.53-.86-1.09-.57-2.04-1.44-2.87-2.59-.83-1.15-1.48-2.59-1.95-4.31-.47-1.72-.71-3.71-.71-5.97,0-1.75.14-3.35.41-4.8.28-1.45.61-2.74,1.01-3.86.39-1.13.83-2.08,1.3-2.86.47-.78.89-1.4,1.24-1.86h35.13c1.22,2.07,2.09,4.34,2.61,6.8.51,2.46.77,4.89.77,7.28,0,2.76-.29,5.28-.86,7.55-.57,2.28-1.25,4.13-2.04,5.55h-2.43v20.7c-1.54,1.56-3.3,3.06-5.27,4.48-1.98,1.43-4.22,2.68-6.72,3.76-2.51,1.08-5.32,1.94-8.44,2.59-3.12.64-6.58.97-10.37.97s-7.27-.39-10.78-1.17c-3.51-.78-6.83-1.99-9.95-3.62-3.12-1.63-5.98-3.7-8.59-6.21-2.61-2.51-4.86-5.48-6.75-8.93-1.9-3.45-3.37-7.39-4.41-11.83-1.05-4.44-1.57-9.42-1.57-14.94,0-7.73,1.02-14.5,3.05-20.32,2.03-5.82,4.88-10.68,8.53-14.59,3.65-3.91,8.02-6.85,13.09-8.83,5.07-1.98,10.67-2.97,16.8-2.97,3.2,0,6.32.31,9.36.93,3.04.62,5.88,1.45,8.53,2.48,2.65,1.03,5.05,2.23,7.23,3.59,2.17,1.36,4.01,2.79,5.51,4.31,0,1.52-.08,3.17-.24,4.97-.16,1.79-.37,3.58-.62,5.35-.26,1.77-.57,3.45-.95,5.04-.38,1.59-.78,2.91-1.21,3.97h-31.22c-.47.6-1.02,1.4-1.63,2.41-.61,1.01-1.19,2.22-1.72,3.62-.53,1.4-.99,3.01-1.36,4.83-.38,1.82-.56,3.83-.56,6.04,0,2.81.31,5.23.92,7.28.61,2.05,1.42,3.75,2.43,5.11,1.01,1.36,2.17,2.37,3.5,3.04,1.32.67,2.69,1,4.12,1,.71,0,1.21-.15,1.48-.45.28-.3.42-.66.42-1.07v-1.59h-.65Z"/>
      <path class="cls-8" d="m155.98,168.29c-4.62,0-8.96-.83-13-2.48-4.05-1.66-7.56-4.16-10.54-7.52-2.98-3.36-5.34-7.54-7.08-12.56-1.74-5.01-2.61-10.88-2.61-17.59,0-6.07.81-11.56,2.43-16.46,1.62-4.9,3.89-9.07,6.81-12.52,2.92-3.45,6.42-6.09,10.49-7.93,4.07-1.84,8.57-2.76,13.51-2.76s9.44.99,13.51,2.97c4.07,1.98,7.55,4.75,10.46,8.31,2.9,3.57,5.15,7.82,6.75,12.76,1.6,4.95,2.4,10.36,2.4,16.25s-.75,11.55-2.25,16.42c-1.5,4.88-3.67,9.03-6.52,12.45-2.84,3.43-6.32,6.06-10.43,7.9-4.11,1.84-8.75,2.76-13.92,2.76Zm-1.36-28.49c.28.32.69.48,1.24.48.75,0,1.25-.26,1.51-.79.26-.53.39-1.39.39-2.59v-9.87c0-2.07-.03-3.82-.09-5.24-.06-1.43-.19-2.6-.39-3.52-.2-.92-.44-1.52-.74-1.79-.3-.28-.64-.41-1.04-.41-.36,0-.64.07-.86.21-.22.14-.41.3-.56.48.04.74.1,1.43.18,2.07.08.64.14,1.37.18,2.17.04.81.08,1.75.12,2.83.04,1.08.06,2.38.06,3.9v12.07Z"/>
      <path class="cls-8" d="m224.7,168.29c-4.62,0-8.96-.83-13-2.48-4.05-1.66-7.56-4.16-10.54-7.52-2.98-3.36-5.34-7.54-7.08-12.56-1.74-5.01-2.61-10.88-2.61-17.59,0-6.07.81-11.56,2.43-16.46,1.62-4.9,3.89-9.07,6.81-12.52,2.92-3.45,6.42-6.09,10.49-7.93,4.07-1.84,8.57-2.76,13.51-2.76s9.44.99,13.51,2.97c4.07,1.98,7.55,4.75,10.46,8.31,2.9,3.57,5.15,7.82,6.75,12.76,1.6,4.95,2.4,10.36,2.4,16.25s-.75,11.55-2.25,16.42c-1.5,4.88-3.67,9.03-6.52,12.45-2.84,3.43-6.32,6.06-10.43,7.9-4.11,1.84-8.75,2.76-13.92,2.76Zm-1.36-28.49c.28.32.69.48,1.24.48.75,0,1.25-.26,1.51-.79.26-.53.39-1.39.39-2.59v-9.87c0-2.07-.03-3.82-.09-5.24-.06-1.43-.19-2.6-.39-3.52-.2-.92-.44-1.52-.74-1.79-.3-.28-.64-.41-1.04-.41-.36,0-.64.07-.86.21-.22.14-.41.3-.56.48.04.74.1,1.43.18,2.07.08.64.14,1.37.18,2.17.04.81.08,1.75.12,2.83.04,1.08.06,2.38.06,3.9v12.07Z"/>
      <path class="cls-8" d="m323.1,131.38c0,3.17.3,5.9.89,8.18s1.72,4.01,3.38,5.21c.04.37.06.82.06,1.35v1.21c0,3.5-.47,6.51-1.42,9.04-.95,2.53-2.18,4.61-3.7,6.24-1.52,1.63-3.25,2.84-5.18,3.62-1.94.78-3.91,1.17-5.92,1.17-1.42,0-2.82-.18-4.18-.55-1.36-.37-2.65-.94-3.85-1.72-1.21-.78-2.29-1.77-3.26-2.97-.97-1.2-1.73-2.6-2.28-4.21-1.34,0-2.01.76-2.01,2.28,0,.64.23,1.42.68,2.31.45.9,1.08,1.71,1.87,2.45-1.15.78-2.55,1.38-4.21,1.79s-3.28.62-4.86.62c-2.33,0-4.66-.3-6.99-.9-2.33-.6-4.56-1.55-6.69-2.86-2.13-1.31-4.13-2.99-5.98-5.04-1.86-2.05-3.47-4.51-4.83-7.38-1.36-2.87-2.44-6.18-3.23-9.9-.79-3.73-1.19-7.96-1.19-12.69,0-6.03.77-11.38,2.31-16.08,1.54-4.69,3.66-8.65,6.37-11.87,2.7-3.22,5.9-5.67,9.6-7.35,3.69-1.68,7.67-2.52,11.94-2.52,3,0,5.63.34,7.88,1.04,2.25.69,4.17,1.49,5.75,2.41.2-.23.36-.49.47-.79.12-.3.18-.56.18-.79,0-.74-.41-1.4-1.21-2-.81-.6-1.84-1.11-3.08-1.55-1.24-.44-2.62-.78-4.12-1.04-1.5-.25-2.92-.38-4.26-.38,0-.87-.03-1.83-.09-2.86-.06-1.03-.16-2.05-.3-3.04s-.31-1.95-.5-2.9c-.2-.94-.44-1.76-.71-2.45.91-1.24,1.9-2.39,2.96-3.45,1.07-1.06,2.26-1.97,3.58-2.73s2.8-1.36,4.44-1.79c1.64-.44,3.5-.66,5.6-.66,2.29,0,4.42.39,6.4,1.17,1.97.78,3.68,1.94,5.12,3.48s2.57,3.43,3.38,5.66c.81,2.23,1.21,4.8,1.21,7.69v45.54Zm-28.97-3.17c0-1.52.02-2.82.06-3.9.04-1.08.08-2.02.12-2.83.04-.8.09-1.53.15-2.17.06-.64.13-1.33.21-2.07-.16-.18-.35-.34-.56-.48-.22-.14-.5-.21-.86-.21-.4,0-.74.14-1.04.41-.3.28-.54.87-.74,1.79-.2.92-.33,2.09-.39,3.52-.06,1.43-.09,3.17-.09,5.24v7.04c0,1.2.13,2.06.39,2.59.26.53.76.79,1.51.79.55,0,.97-.16,1.24-.48v-9.24Z"/>
      <path class="cls-9" d="m143.4,229.58c-1.24,1.26-3,2.39-5.28,3.4-2.27,1.01-5.02,1.52-8.23,1.52-1.7,0-3.34-.21-4.91-.63-1.58-.42-2.97-1.05-4.18-1.91-1.21-.85-2.18-1.94-2.89-3.27-.71-1.33-1.07-2.88-1.07-4.66v-53.15c0-3.21,6.84-4.81,20.51-4.81h26.7c.39.8.76,1.73,1.09,2.77.33,1.05.61,2.12.82,3.22.21,1.1.38,2.2.5,3.3.12,1.1.18,2.12.18,3.06,0,3.91-.73,6.88-2.18,8.92-1.46,2.04-3.78,3.06-6.96,3.06h-15.74c-.61,0-1.05.16-1.32.47-.27.31-.41.72-.41,1.2v.39c0,.19.03.32.09.39h20.1c.64,1.26,1.18,2.79,1.64,4.6.46,1.81.68,3.7.68,5.65,0,2.79-.3,5.1-.89,6.93-.59,1.83-1.22,3.22-1.89,4.16h-22.29c-.24.28-.36.59-.36.94,0,.31.1.55.3.71.2.16.53.27,1,.34.47.07,1.11.1,1.91.1s1.83.02,3.07.05v13.24Z"/>
      <path class="cls-9" d="m190.89,235.18c-3.55,0-6.88-.63-9.98-1.88s-5.81-3.16-8.1-5.7c-2.29-2.55-4.1-5.72-5.44-9.52-1.33-3.8-2-8.25-2-13.34,0-4.6.62-8.76,1.87-12.48,1.24-3.71,2.99-6.88,5.23-9.5,2.24-2.62,4.93-4.62,8.05-6.02,3.12-1.39,6.58-2.09,10.37-2.09s7.25.75,10.37,2.25c3.12,1.5,5.8,3.6,8.03,6.3,2.23,2.7,3.96,5.93,5.19,9.68s1.84,7.86,1.84,12.32-.58,8.75-1.73,12.45c-1.15,3.7-2.82,6.84-5,9.44-2.18,2.6-4.85,4.6-8.01,5.99-3.15,1.39-6.72,2.09-10.69,2.09Zm-1.05-21.61c.21.24.53.37.96.37.58,0,.96-.2,1.16-.6.2-.4.3-1.05.3-1.96v-7.48c0-1.57-.02-2.89-.07-3.98-.05-1.08-.14-1.97-.3-2.67-.15-.7-.34-1.15-.57-1.36-.23-.21-.49-.31-.8-.31-.27,0-.49.05-.66.16-.17.1-.31.23-.43.37.03.56.08,1.08.14,1.57s.11,1.04.14,1.65c.03.61.06,1.33.09,2.15.03.82.05,1.8.05,2.96v9.15Z"/>
      <path class="cls-9" d="m243.65,235.18c-3.55,0-6.88-.63-9.98-1.88-3.11-1.26-5.81-3.16-8.1-5.7-2.29-2.55-4.1-5.72-5.44-9.52-1.33-3.8-2-8.25-2-13.34,0-4.6.62-8.76,1.87-12.48,1.24-3.71,2.99-6.88,5.23-9.5,2.24-2.62,4.93-4.62,8.05-6.02,3.12-1.39,6.58-2.09,10.37-2.09s7.25.75,10.37,2.25c3.12,1.5,5.8,3.6,8.03,6.3,2.23,2.7,3.96,5.93,5.18,9.68,1.23,3.75,1.84,7.86,1.84,12.32s-.58,8.75-1.73,12.45c-1.15,3.7-2.82,6.84-5,9.44-2.18,2.6-4.85,4.6-8,5.99-3.15,1.39-6.72,2.09-10.69,2.09Zm-1.05-21.61c.21.24.53.37.96.37.58,0,.96-.2,1.16-.6.2-.4.3-1.05.3-1.96v-7.48c0-1.57-.02-2.89-.07-3.98-.05-1.08-.14-1.97-.3-2.67-.15-.7-.34-1.15-.57-1.36s-.49-.31-.8-.31c-.27,0-.49.05-.66.16-.17.1-.31.23-.43.37.03.56.07,1.08.14,1.57.06.49.1,1.04.14,1.65.03.61.06,1.33.09,2.15.03.82.05,1.8.05,2.96v9.15Z"/>
      <path class="cls-9" d="m319.2,207.19c0,2.41.23,4.47.68,6.2.46,1.73,1.32,3.04,2.59,3.95.03.28.05.62.05,1.02v.92c0,2.65-.36,4.94-1.09,6.85-.73,1.92-1.68,3.5-2.84,4.74-1.17,1.24-2.5,2.15-3.98,2.75-1.49.59-3,.89-4.55.89-1.09,0-2.16-.14-3.21-.42-1.05-.28-2.03-.71-2.96-1.31-.93-.59-1.76-1.34-2.5-2.25-.74-.91-1.33-1.97-1.75-3.19-1.03,0-1.55.58-1.55,1.73,0,.49.17,1.07.52,1.75.35.68.83,1.3,1.43,1.86-.88.59-1.96,1.05-3.23,1.36-1.27.31-2.52.47-3.73.47-1.79,0-3.58-.23-5.37-.68-1.79-.45-3.5-1.18-5.14-2.17-1.64-.99-3.17-2.27-4.59-3.82-1.43-1.55-2.66-3.42-3.71-5.6-1.05-2.18-1.87-4.68-2.48-7.51-.61-2.82-.91-6.03-.91-9.63,0-4.57.59-8.63,1.77-12.19,1.18-3.56,2.81-6.56,4.89-9,2.08-2.44,4.53-4.3,7.37-5.57,2.83-1.27,5.89-1.91,9.16-1.91,2.3,0,4.32.26,6.05.79,1.73.52,3.2,1.13,4.41,1.83.15-.17.27-.37.36-.6.09-.23.14-.43.14-.6,0-.56-.31-1.06-.93-1.52-.62-.45-1.41-.84-2.36-1.18-.96-.33-2.01-.59-3.16-.78-1.15-.19-2.24-.29-3.28-.29,0-.66-.02-1.39-.07-2.17s-.12-1.55-.23-2.3c-.11-.75-.23-1.48-.39-2.2-.15-.71-.33-1.33-.55-1.86.7-.94,1.46-1.81,2.28-2.62.82-.8,1.74-1.49,2.75-2.07,1.02-.58,2.15-1.03,3.41-1.36,1.26-.33,2.69-.5,4.3-.5,1.76,0,3.4.3,4.91.89,1.51.59,2.83,1.47,3.93,2.64,1.11,1.17,1.97,2.6,2.59,4.29.62,1.69.93,3.64.93,5.83v34.53Zm-22.24-2.41c0-1.15.02-2.14.05-2.96.03-.82.06-1.53.09-2.15.03-.61.07-1.16.11-1.65.05-.49.1-1.01.16-1.57-.12-.14-.27-.26-.43-.37-.17-.1-.39-.16-.66-.16-.3,0-.57.1-.8.31s-.42.66-.57,1.36c-.15.7-.25,1.59-.3,2.67-.05,1.08-.07,2.41-.07,3.98v5.34c0,.91.1,1.56.3,1.96.2.4.58.6,1.16.6.43,0,.74-.12.96-.37v-7.01Z"/>
      <path class="cls-9" d="m384.74,229.58c-1.24,1.26-3.01,2.39-5.3,3.4-2.29,1.01-5.04,1.52-8.26,1.52-1.7,0-3.34-.21-4.91-.63-1.58-.42-2.96-1.05-4.16-1.91-1.2-.85-2.15-1.94-2.87-3.24-.71-1.31-1.07-2.85-1.07-4.63v-33.69h-10.6c-1.15-1.92-1.99-3.83-2.5-5.73-.52-1.9-.77-3.91-.77-6.04,0-1.6.12-3.06.36-4.37.24-1.31.56-2.48.96-3.5.39-1.03.84-1.94,1.34-2.72.5-.79,1.01-1.44,1.52-1.96h47.03c.85,1.5,1.57,3.37,2.16,5.6.59,2.23.89,4.48.89,6.75,0,2.13-.22,3.95-.66,5.47-.44,1.52-1.05,2.76-1.82,3.71-.77.96-1.69,1.67-2.75,2.12-1.06.45-2.23.68-3.5.68h-13.33c-.09.28-.14.54-.14.78,0,.31.06.57.18.76.12.19.37.36.75.5.38.14.91.24,1.59.29.68.05,1.58.08,2.71.08h3.14v36.78Z"/>
      <path class="cls-9" d="m405.66,176.38c1.88,0,3.45.35,4.71,1.05,1.26.7,2.25,1.67,2.98,2.93-.39.49-.77,1.08-1.11,1.78-.35.7-.65,1.39-.91,2.07s-.46,1.33-.61,1.94c-.15.61-.23,1.09-.23,1.44,0,.42.14.79.41,1.12.27.33.7.5,1.27.5.58-2.58,1.39-4.74,2.43-6.49,1.05-1.74,2.24-3.14,3.59-4.18,1.35-1.05,2.81-1.79,4.37-2.22,1.56-.44,3.15-.65,4.75-.65,1.3,0,2.5.1,3.59.29,1.09.19,2.08.44,2.96.76s1.65.67,2.32,1.07c.67.4,1.23.79,1.68,1.18.48,1.47.83,3.02,1.05,4.66.21,1.64.32,3.24.32,4.81,0,2.82-.22,5.18-.66,7.06-.44,1.88-.92,3.44-1.43,4.66-.49.28-1.09.56-1.82.84s-1.52.52-2.39.73c-.86.21-1.78.38-2.75.5-.97.12-1.93.18-2.87.18-1,0-1.89-.03-2.66-.1-.77-.07-1.48-.17-2.12-.29-.64-.12-1.22-.26-1.75-.42-.53-.16-1.07-.3-1.62-.44-.24.28-.36.68-.36,1.2,0,.49.28.87.84,1.15.56.28,1.57.58,3.02.89v26.26c-1.03.77-2.08,1.39-3.14,1.86-1.06.47-2.1.84-3.12,1.1-1.02.26-1.99.44-2.91.52-.93.09-1.78.13-2.57.13-1.7,0-3.29-.18-4.78-.55-1.49-.37-2.78-.92-3.89-1.67-1.11-.75-1.98-1.7-2.62-2.85-.64-1.15-.95-2.53-.95-4.13v-26.94c-.91-1.46-1.59-3.12-2.03-4.97-.44-1.85-.66-3.78-.66-5.81,0-1.67.22-3.52.66-5.55s1.11-3.82,2.03-5.39h6.96Z"/>
      <path class="cls-9" d="m470.84,231.47c-.36.35-.8.71-1.3,1.07-.5.37-1.1.69-1.8.97-.7.28-1.52.51-2.46.71-.94.19-2.03.29-3.28.29-1.36,0-2.77-.14-4.23-.42s-2.87-.76-4.25-1.44c-1.38-.68-2.69-1.6-3.93-2.75-1.24-1.15-2.33-2.59-3.25-4.32-.92-1.73-1.66-3.77-2.21-6.12-.55-2.35-.82-5.1-.82-8.24v-13.13c-.64-1.29-1.18-2.78-1.64-4.47-.45-1.69-.68-3.62-.68-5.78,0-.94.05-1.92.16-2.93.11-1.01.27-2.01.48-3.01s.48-1.96.82-2.9c.33-.94.74-1.81,1.23-2.62h10.01c1.76,0,3.38.24,4.87.71,1.49.47,2.76,1.21,3.82,2.22,1.06,1.01,1.89,2.29,2.48,3.85.59,1.55.89,3.41.89,5.57v16.95c0,1.95.16,3.29.48,4,.32.71.72,1.07,1.21,1.07.3,0,.54-.05.7-.16.17-.1.33-.23.48-.37-.15-.59-.27-1.31-.34-2.15-.08-.84-.11-1.92-.11-3.24v-25.84c.58-.38,1.22-.78,1.93-1.18.71-.4,1.54-.76,2.48-1.07.94-.31,1.99-.58,3.16-.79,1.17-.21,2.51-.31,4.03-.31,2.64,0,4.91.41,6.82,1.23,1.91.82,3.35,1.84,4.32,3.06v27.26c0,2.41.23,4.47.68,6.2.46,1.73,1.32,3.04,2.59,3.95.03.28.05.62.05,1.02v.92c0,2.65-.31,4.94-.93,6.85-.62,1.92-1.48,3.5-2.57,4.74-1.09,1.24-2.39,2.15-3.89,2.75-1.5.59-3.13.89-4.89.89-2.24,0-4.33-.59-6.25-1.78-1.93-1.19-3.37-2.98-4.34-5.39-1.03,0-1.55.58-1.55,1.73,0,.38.09.78.27,1.2.18.42.44.82.77,1.2Z"/>
      <path class="cls-9" d="m520.64,235.18c-4,0-7.6-.74-10.78-2.22-3.18-1.48-5.9-3.57-8.14-6.25-2.24-2.68-3.97-5.93-5.16-9.73-1.2-3.8-1.8-8.02-1.8-12.66,0-4.99.73-9.35,2.18-13.08,1.46-3.73,3.38-6.83,5.78-9.29,2.4-2.46,5.13-4.3,8.21-5.52,3.08-1.22,6.25-1.83,9.53-1.83,3.06,0,5.93.45,8.6,1.33,2.67.89,4.99,2.19,6.96,3.9,1.97,1.71,3.53,3.79,4.66,6.25,1.14,2.46,1.71,5.28,1.71,8.45,0,2.13-.3,4.07-.91,5.83-.61,1.76-1.46,3.28-2.55,4.55-1.09,1.27-2.4,2.26-3.93,2.96-1.53.7-3.22,1.05-5.07,1.05-1.55,0-2.96-.24-4.25-.73-1.29-.49-2.41-1.18-3.37-2.07-.96-.89-1.74-1.95-2.34-3.19-.61-1.24-1-2.61-1.18-4.11-.58,0-1.05.11-1.43.34-.38.23-.57.67-.57,1.33,0,1.12.28,2.3.84,3.56.56,1.26,1.37,2.42,2.43,3.48,1.06,1.06,2.38,1.95,3.96,2.67,1.58.72,3.4,1.07,5.46,1.07,2.21,0,4.07-.28,5.57-.84,1.5-.56,2.74-1.2,3.71-1.94.64,1.12,1.18,2.48,1.62,4.08.44,1.6.66,3.51.66,5.7,0,2.02-.42,4.04-1.25,6.04-.84,2.01-2.09,3.81-3.78,5.42-1.68,1.6-3.8,2.91-6.35,3.92-2.55,1.01-5.55,1.52-9.01,1.52Z"/>
      <path class="cls-9" d="m568.99,229.17c-1.33,1.6-3.07,2.9-5.21,3.87-2.14.98-4.57,1.46-7.3,1.46-1.36,0-2.75-.23-4.16-.68-1.41-.45-2.68-1.14-3.82-2.07-1.14-.92-2.07-2.07-2.8-3.45-.73-1.38-1.09-3.01-1.09-4.89v-61.05c1.39-.94,3.12-1.73,5.16-2.38,2.05-.64,4.15-.97,6.3-.97,1.58,0,3.11.19,4.62.58,1.5.38,2.83.99,4,1.8,1.17.82,2.11,1.88,2.82,3.19.71,1.31,1.07,2.89,1.07,4.73v5.55c0,2.62-.2,5.06-.61,7.32-.41,2.27-.92,4.36-1.52,6.28-.21.38-.53.84-.96,1.36-.43.52-.84,1.06-1.25,1.62-.41.56-.77,1.1-1.07,1.62-.3.52-.46.96-.46,1.31,0,.63.36,1.15,1.09,1.57,1.24-1.32,2.33-2.68,3.25-4.08.92-1.39,1.75-2.9,2.48-4.53.73-1.62,1.37-3.38,1.93-5.28.56-1.9,1.1-4.02,1.61-6.36.39-.07.89-.17,1.48-.29.59-.12,1.2-.24,1.82-.37.62-.12,1.21-.23,1.77-.31s1.02-.13,1.39-.13c2.27,0,4.33.31,6.16.92,1.83.61,3.39,1.52,4.66,2.72,1.27,1.2,2.26,2.69,2.96,4.45.7,1.76,1.05,3.79,1.05,6.1,0,2.16-.32,4.13-.96,5.91-.64,1.78-1.51,3.37-2.61,4.79-1.11,1.41-2.39,2.63-3.84,3.66-1.46,1.03-3,1.87-4.64,2.54.82.56,1.62,1.04,2.41,1.44.79.4,1.59.76,2.41,1.07.82.31,1.69.59,2.61.84.93.24,1.96.47,3.12.68.82,1.71,1.43,3.45,1.84,5.23.41,1.78.61,3.52.61,5.23,0,1.95-.27,3.8-.8,5.55-.53,1.74-1.34,3.27-2.41,4.58-1.08,1.31-2.43,2.34-4.05,3.09s-3.51,1.12-5.66,1.12-4.06-.48-5.8-1.44c-1.75-.96-3.27-2.33-4.57-4.11-1.3-1.78-2.37-3.94-3.18-6.49-.82-2.55-1.37-5.41-1.64-8.58l-2.18,1.1c0,1.19.11,2.42.32,3.71.21,1.29.49,2.56.84,3.79.35,1.24.77,2.43,1.25,3.58.48,1.15,1,2.18,1.55,3.09Z"/>
    </g>
  </g>
</svg>